<svg width="1566" height="3269" viewBox="0 0 1566 3269" fill="none" xmlns="http://www.w3.org/2000/svg">
    <path
        d="M84.0743 1344.64L441.436 1579H550.499L305.069 1418.05V1150.76C349.027 1138.96 381.402 1098.85 381.402 1051.16C381.402 994.194 335.219 948.017 278.253 948.017C221.287 948.017 175.104 994.194 175.104 1051.16C175.104 1098.85 207.479 1138.96 251.437 1150.76V1382.88L137.749 1308.31V912.065C181.708 900.259 214.083 860.148 214.083 812.458C214.083 755.497 167.9 709.316 110.934 709.316C53.9678 709.316 7.78566 755.497 7.78566 812.458H7.74121C7.74121 860.148 40.1155 900.259 84.0743 912.065V1344.64ZM223.332 1051.13C223.332 1020.81 247.924 996.218 278.253 996.218C308.582 996.218 333.174 1020.81 333.174 1051.13C333.174 1081.46 308.582 1106.05 278.253 1106.05C247.924 1106.05 223.332 1081.46 223.332 1051.13ZM55.9912 812.458C55.9912 782.132 80.5831 757.541 110.912 757.541C141.241 757.541 165.832 782.132 165.832 812.458C165.832 842.784 141.241 867.374 110.912 867.374C80.5831 867.374 55.9912 842.784 55.9912 812.458Z"
        fill="white" />
    <path
        d="M648.663 1505.39V944.439C692.623 932.633 724.996 892.522 724.996 844.831C724.996 787.867 678.813 741.69 621.848 741.69C564.882 741.69 518.699 787.867 518.699 844.831C518.699 892.522 551.075 932.633 595.033 944.439V1470.21L454.974 1378.37V571.804C498.931 559.998 531.307 519.889 531.307 472.198C531.307 415.236 485.124 369.057 428.159 369.057C371.191 369.057 325.01 415.236 325.01 472.198C325.01 519.889 357.383 559.998 401.344 571.804V1414.7L651.821 1578.98H760.883L648.663 1505.39ZM567.528 844.831C567.528 814.505 592.121 789.915 622.447 789.915C652.777 789.915 677.37 814.505 677.37 844.831C677.37 875.158 652.777 899.748 622.447 899.748C592.121 899.748 567.528 875.158 567.528 844.831ZM373.973 472.198C373.973 441.871 398.562 417.281 428.892 417.281C459.222 417.281 483.811 441.871 483.811 472.198C483.811 502.524 459.222 527.114 428.892 527.114C398.562 527.114 373.973 502.524 373.973 472.198Z"
        fill="white" />
    <path
        d="M1136.26 423.57C1079.29 423.57 1033.11 469.749 1033.11 526.712C1033.11 574.403 1065.49 614.512 1109.44 626.318V1374.7L970.718 1465.68V1099.09C1014.68 1087.28 1047.05 1047.18 1047.05 999.486C1047.05 942.521 1000.87 896.344 943.903 896.344C886.938 896.344 840.754 942.521 840.754 999.486C840.754 1047.18 873.13 1087.28 917.088 1099.09V1500.85L797.84 1579.05H906.905L1163.07 1411.05V626.318C1207.03 614.512 1239.41 574.403 1239.41 526.712C1239.41 469.749 1193.22 423.57 1136.26 423.57ZM888.983 999.462C888.983 969.136 913.576 944.546 943.903 944.546C974.233 944.546 998.825 969.136 998.825 999.462C998.825 1029.79 974.233 1054.38 943.903 1054.38C913.576 1054.38 888.983 1029.79 888.983 999.462ZM1191.16 526.712C1191.16 557.038 1166.57 581.628 1136.24 581.628C1105.91 581.628 1081.32 557.038 1081.32 526.712C1081.32 496.385 1105.91 471.795 1136.24 471.795C1166.57 471.795 1191.16 496.385 1191.16 526.712Z"
        fill="white" />
    <path
        d="M1437.26 624.79C1380.29 624.79 1334.11 670.969 1334.11 727.93C1334.11 775.621 1366.48 815.732 1410.44 827.537V1332.66L1312.34 1396.98V1287.02C1356.3 1275.21 1388.67 1235.1 1388.67 1187.41C1388.67 1130.45 1342.49 1084.27 1285.52 1084.27C1228.56 1084.27 1182.37 1130.45 1182.37 1187.41C1182.37 1235.1 1214.75 1275.21 1258.71 1287.02V1432.18L1034.8 1579.03H1143.87L1464.07 1369.03V827.537C1508.03 815.732 1540.4 775.621 1540.4 727.93C1540.4 670.969 1494.22 624.79 1437.26 624.79ZM1284.79 1242.32C1254.86 1242.32 1230.6 1217.73 1230.6 1187.41C1230.6 1157.08 1254.86 1132.49 1284.79 1132.49C1314.72 1132.49 1338.98 1157.08 1338.98 1187.41C1338.98 1217.73 1314.72 1242.32 1284.79 1242.32ZM1492.16 727.954C1492.16 758.28 1467.56 782.87 1437.23 782.87C1406.91 782.87 1382.31 758.28 1382.31 727.954C1382.31 697.628 1406.91 673.037 1437.23 673.037C1467.56 673.037 1492.16 697.628 1492.16 727.954Z"
        fill="white" />
    <path d="M552.83 2095.38L457.865 2099.45V2190.25L626.918 2342.68L622.94 2227.29L552.83 2095.38Z" fill="white" />
    <path
        d="M1427.62 1587.63C1386.51 1593.44 1317.61 1613.42 1105.53 1707.67C1072.71 1684.71 936.32 1597.26 791.993 1596.33C579.069 1596.33 431.008 1765.39 431.008 1765.39C418.686 1752.36 399.345 1733.55 372.973 1714.54C318.319 1675.12 272.626 1662.98 209.144 1639.48C171.011 1625.36 116.869 1603.6 52.3872 1571.52C78.2912 1625.39 100.949 1668.47 117.136 1698.4C164.963 1786.71 177.393 1798.59 189.778 1839.63C192.69 1849.25 198.027 1868.64 211.768 1891.48C226.443 1915.87 243.676 1932.57 255.771 1942.75L383.645 1946.9C368.458 1933.39 301.398 1873.38 248.701 1816.64C236.115 1803.08 219.173 1784.16 204.319 1755.3C194.514 1736.29 188.91 1719.34 185.664 1707.65C229.134 1716.1 263.331 1729.06 287.056 1739.78C324.945 1756.9 347.201 1766.95 366.746 1791.03C373.439 1799.27 383.202 1818.62 402.457 1856.99C407.524 1867.09 425.56 1903.04 431.028 1913.95C499.957 2002.4 579.892 2026.88 593.876 2035.48C607.864 2044.09 651.444 2056.74 653.067 2147.12C654.69 2237.5 721.664 2309.33 721.664 2309.33C721.664 2309.33 729.157 2321.81 726.512 2327.63C722.53 2336.39 697.404 2326.12 672.169 2338.93C665.075 2342.53 661.34 2346.26 660.094 2351C658.358 2357.74 662.34 2363.98 663.806 2366.1C686.666 2396.49 721.64 2410.21 729.98 2429.3C722.487 2426.37 694.336 2416.08 683.241 2427.5C669.387 2441.8 689.954 2481.98 701.229 2499.32C708.809 2510.99 716.749 2519.37 722.174 2524.53H791.993V1732.37C791.993 1732.37 892.739 2017.14 891.939 2048.02C891.116 2078.9 866.101 2219.73 835.441 2255.24C828.747 2264.96 821.497 2278.32 817.272 2295.19C815.896 2300.71 815.249 2304.93 814.85 2307.71C808.802 2349.22 807.979 2377.92 807.979 2377.92C807.156 2407.05 804.334 2455.52 800.263 2520.24H853.896C857.451 2496.89 864.255 2468.37 877.462 2437.64C906.28 2370.61 950.55 2328.08 978.055 2305.71C1015.03 2274.09 1052.03 2242.48 1089.01 2210.86L1093.14 2074.72L981.77 2078.93C981.77 2078.93 905.703 2296.66 874.573 2309.87C843.444 2323.05 924.802 2116.08 928.117 2091.24C966.47 2074.5 1035.24 2038.06 1093.14 1964.74C1127.21 1921.6 1146.86 1879.18 1158.43 1847.43C1165.3 1836.16 1181.64 1812.79 1212.04 1795.94C1239.76 1780.55 1265.64 1778.11 1278.74 1777.77C1274.49 1800.74 1267.51 1817.93 1262.09 1829.18C1242.41 1869.87 1212.9 1894.75 1158.78 1939.48C1141.93 1953.42 1127.61 1964.4 1117.89 1971.67C1168.76 1969.16 1206.63 1968.34 1232.38 1968.07C1244.63 1967.94 1291.19 1967.56 1291.19 1967.56C1325.7 1909.89 1354.32 1859.71 1376.57 1819.75C1416.93 1747.31 1431.81 1716.81 1445.01 1677.75C1458 1639.37 1464.76 1606.44 1468.49 1583.94C1455.11 1584.76 1441.44 1585.72 1427.6 1587.68L1427.62 1587.63ZM994.131 2120.15L1060.17 2111.88V2190.29L928.117 2297.55L994.131 2120.15ZM1038.8 1942.15C1004.38 1996.93 949.994 2015.83 932.205 2021.19L837.353 1670.47C974.563 1722.24 1012.16 1756.52 1012.16 1756.52C1033.6 1776.08 1055.57 1796.65 1063.82 1830.76C1076.31 1882.43 1048.16 1927.25 1038.8 1942.15ZM1394.72 1703.27C1384.73 1725.5 1369.97 1758.21 1348.65 1797.14C1331.48 1828.49 1307.36 1868.82 1274.67 1913.91H1241.63C1262.6 1893.14 1277.76 1873.69 1288.12 1858.97C1303.96 1836.47 1324.92 1806.08 1336.82 1761.79C1341.84 1743.07 1343.86 1727.04 1344.75 1715.99C1301.33 1712.45 1268.04 1721.44 1249.66 1727.88C1203.16 1744.22 1174.44 1771.68 1155.49 1790.2C1127.79 1817.26 1110.15 1844.59 1099.35 1864.42L1089.05 1777.71C1117.89 1765.5 1161.49 1746.25 1213.95 1719.81C1249.3 1701.98 1263.11 1693.77 1291.75 1679.97C1322.99 1664.87 1368.68 1644.66 1427.29 1625.17C1419.33 1645.86 1408.51 1672.57 1394.72 1703.27Z"
        fill="white" />
    <path
        d="M1107.59 2231.45C1107.59 2231.45 1087.16 2250.73 1057.61 2278.43C1022.68 2311.18 912.99 2414.32 905.073 2428.5C894.425 2447.6 892.869 2460.45 881.794 2490.56C871.811 2517.73 861.339 2539.12 853.866 2553.26L791.966 2557.3H738.4C738.4 2557.3 736.334 2563.51 731.686 2569.71C731.686 2569.71 723.37 2579.53 709.519 2582.11C689.884 2585.76 663.559 2541.74 640.656 2505.19C567.681 2388.73 541.309 2366.69 529.814 2357.78C516.607 2347.53 507.624 2342.62 489.459 2326.56C459.552 2300.15 439.317 2274.09 426.909 2256.28L309.375 2437.75C309.375 2437.75 353.135 2653.44 383.618 2689.35C398.648 2707.02 414.768 2724.65 414.768 2724.65C465.043 2775.15 511.069 2793.98 560.208 2821.01C592.94 2839.02 638.01 2866.7 688.905 2907.99H853.866L1134.43 2738.84L1241.67 2464.37L1107.59 2231.49V2231.45ZM1099.32 2289.3L1179.77 2429.46L969.379 2421.19L1099.32 2289.3ZM771.332 2701.73L787.875 2602.73L837.346 2590.34V2602.73L808.509 2701.73H771.332ZM832.965 2874.98H800.236V2858.59L917.971 2483.09L1080.71 2726.48L832.965 2874.98ZM1111.75 2689.35L944.609 2458.32L1204.52 2474.79L1111.75 2689.35Z"
        fill="white" />
</svg>